<?xml version="1.0" encoding="UTF-8"?><svg id="Ebene_2" xmlns="http://www.w3.org/2000/svg" viewBox="0 0 1734.66 1737.41"><defs><style>.cls-1{fill:none;stroke:#26262c;stroke-miterlimit:10;stroke-width:100px;}.cls-2{fill:#26262c;stroke-width:0px;}</style></defs><path class="cls-2" d="M42.85,1401.5H0v-215.5h42.85v215.5Z"/><path class="cls-2" d="M92.83,1401.5v-152.34h38.72l.79,17.62c7.93-10.63,24.28-20.79,46.97-20.79,35.23,0,60.14,23.17,60.14,59.83v95.69h-40.62v-85.22c0-21.11-13.65-32.53-31.58-32.53s-33.8,11.43-33.8,32.53v85.22h-40.62Z"/><path class="cls-2" d="M299.13,1347.23c9.2,14.28,24.76,23.49,40.15,23.49,12.22,0,21.74-4.76,21.74-13.33,0-8.09-8.09-10.95-26.66-15.08-33.33-7.46-56.81-18.09-56.81-49.35,0-28.56,26.34-46.97,59.51-46.97,30.94,0,50.15,15.23,61.1,31.74l-26.03,21.42c-6.67-10.63-17.93-18.88-34.12-18.88-13.17,0-22.22,4.6-22.22,12.22,0,8.25,9.68,10.95,28.56,15.55,33.96,8.25,55.54,19.2,55.54,49.35s-27.61,47.29-60.14,47.29c-29.99,0-54.11-13.81-67.92-35.39l27.29-22.06Z"/><path class="cls-2" d="M456.24,1176.79c13.81,0,23.49,9.52,23.49,23.49s-9.68,23.33-23.49,23.33-23.33-9.52-23.33-23.33,9.52-23.49,23.33-23.49ZM436.08,1401.5v-152.34h40.78v152.34h-40.78Z"/><path class="cls-2" d="M586.52,1245.98c24.44,0,40.15,8.89,50.31,21.58l.79-18.41h39.04l-.32,136.32c-.16,50.46-34.12,82.84-88.07,82.84-27.93,0-55.86-12.22-73.47-33.01l26.18-25.71c14.44,13.96,29.99,22.06,47.29,22.06,28.88,0,47.77-16.66,47.77-42.05v-5.24c-9.2,12.22-27.14,20.31-49.51,20.31-43.16,0-73.79-33.48-73.79-79.5s30.63-79.19,73.79-79.19ZM553.67,1325.01c0,24.12,16.98,43.16,41.26,43.16s41.42-19.04,41.42-43.16-17.46-42.53-41.42-42.53-41.26,17.93-41.26,42.53Z"/><path class="cls-2" d="M722.21,1401.5v-223.44h40.78v87.28c7.93-9.68,23.8-19.36,45.7-19.36,34.91,0,59.83,23.17,59.83,59.83v95.69h-40.78v-85.22c0-21.11-13.49-32.53-31.1-32.53s-33.64,11.43-33.64,32.53v85.22h-40.78Z"/><path class="cls-2" d="M892.8,1282.96v-33.8h25.87v-48.88h39.51v48.88h45.7v33.8h-44.75v62.68c0,15.87,8.89,22.85,22.53,22.85,7.62,0,17.3-1.75,25.87-5.24l3.81,33.8c-9.36,4.6-24.44,7.62-36.82,7.62-33.48,0-56.02-17.3-56.02-53.16v-68.55h-25.71Z"/><path class="cls-2" d="M1054.5,1347.23c9.2,14.28,24.76,23.49,40.15,23.49,12.22,0,21.74-4.76,21.74-13.33,0-8.09-8.09-10.95-26.66-15.08-33.33-7.46-56.81-18.09-56.81-49.35,0-28.56,26.34-46.97,59.51-46.97,30.94,0,50.15,15.23,61.1,31.74l-26.03,21.42c-6.67-10.63-17.93-18.88-34.12-18.88-13.17,0-22.22,4.6-22.22,12.22,0,8.25,9.68,10.95,28.56,15.55,33.96,8.25,55.54,19.2,55.54,49.35s-27.61,47.29-60.14,47.29c-29.99,0-54.11-13.81-67.92-35.39l27.29-22.06Z"/><path class="cls-2" d="M1181.3,1294.22c0-65.22,47.61-111.4,112.83-111.4s112.99,46.34,112.99,111.4-47.45,110.45-112.99,110.45-112.83-45.39-112.83-110.45ZM1294.29,1364.84c40.31,0,68.87-28.56,68.87-70.78s-28.56-71.25-68.87-71.25-68.87,29.36-68.87,71.25,29.04,70.78,68.87,70.78Z"/><path class="cls-2" d="M1441.08,1345.8v-96.64h40.62v86.17c0,21.11,13.65,32.37,31.42,32.37s34.12-11.27,34.12-32.37v-86.17h40.62v152.34h-38.72l-.79-16.82c-7.94,10.79-24.28,20.79-47.29,20.79-35.23,0-59.98-23.01-59.98-59.67Z"/><path class="cls-2" d="M1616.11,1282.96v-33.8h25.87v-48.88h39.51v48.88h45.7v33.8h-44.75v62.68c0,15.87,8.89,22.85,22.53,22.85,7.62,0,17.3-1.75,25.87-5.24l3.81,33.8c-9.36,4.6-24.44,7.62-36.82,7.62-33.48,0-56.02-17.3-56.02-53.16v-68.55h-25.71Z"/><path class="cls-2" d="M24.09,1616.43v-66.31h28.61c12.55,0,20.21,8.45,20.21,18.55,0,5.32-2.73,10.74-7.28,13.38,6.2,2.64,9.77,8.69,9.77,15.19,0,10.79-8.74,19.19-20.75,19.19h-30.57ZM52.71,1578.35c6.1,0,9.86-4.44,9.86-9.42s-3.47-9.67-9.86-9.67h-18.31v19.09h18.31ZM34.4,1607.25h20.26c6.49,0,10.6-4.74,10.6-10.21s-4.3-10.06-10.6-10.06h-20.26v20.26Z"/><path class="cls-2" d="M124.42,1550.17c13.67,0,22.56,7.71,22.56,20.12,0,9.08-5.22,15.82-13.43,18.7l16.06,27.44h-11.91l-14.99-26.03h-16.55v26.03h-10.25v-66.26h28.52ZM106.15,1559.4v21.88h17.77c8.15,0,12.35-4.54,12.35-10.99s-4.2-10.89-12.35-10.89h-17.77Z"/><path class="cls-2" d="M178.74,1616.43h-10.25v-66.31h10.25v66.31Z"/><path class="cls-2" d="M203.43,1616.43v-66.31h10.25l40.38,50.54v-50.54h10.25v66.31h-10.35l-40.28-50.05v50.05h-10.25Z"/><path class="cls-2" d="M284.66,1583.28c0-19.34,14.89-34.13,34.08-34.13,12.06,0,22.12,5.71,28.32,15.04l-7.96,5.57c-5.47-7.32-11.62-10.89-20.36-10.89-13.62,0-23.39,10.25-23.39,24.41s9.96,24.41,23.63,24.41c12.74,0,19.97-7.67,21.29-16.65h-22.85v-9.28h33.5c.15,1.32.2,2.59.2,3.86,0,17.24-11.82,31.79-32.13,31.79-19.24,0-34.33-14.75-34.33-34.13Z"/><path class="cls-2" d="M381.22,1616.43h-10.25v-66.31h10.25v66.31Z"/><path class="cls-2" d="M405.91,1616.43v-66.31h10.25l40.38,50.54v-50.54h10.25v66.31h-10.35l-40.28-50.05v50.05h-10.25Z"/><path class="cls-2" d="M487.14,1583.28c0-19.34,14.89-34.13,34.08-34.13,12.06,0,22.12,5.71,28.32,15.04l-7.96,5.57c-5.47-7.32-11.62-10.89-20.36-10.89-13.62,0-23.39,10.25-23.39,24.41s9.96,24.41,23.63,24.41c12.74,0,19.97-7.67,21.29-16.65h-22.85v-9.28h33.5c.15,1.32.2,2.59.2,3.86,0,17.24-11.82,31.79-32.13,31.79-19.24,0-34.33-14.75-34.33-34.13Z"/><path class="cls-2" d="M593.55,1550.12h53.91v9.62h-21.83v56.69h-10.21v-56.69h-21.88v-9.62Z"/><path class="cls-2" d="M657.3,1583.38c0-19.87,14.7-34.23,34.23-34.23s34.28,14.36,34.28,34.23-14.6,34.03-34.28,34.03-34.23-14.01-34.23-34.03ZM691.52,1607.69c14.21,0,23.54-9.81,23.54-24.41s-9.33-24.41-23.54-24.41-23.49,10.16-23.49,24.41,9.47,24.41,23.49,24.41Z"/><path class="cls-2" d="M746.19,1550.12h12.16l22.9,47.17,22.95-47.17h12.11v66.31h-10.35v-47.51l-21.04,42.82h-7.32l-21.04-42.82v47.51h-10.35v-66.31Z"/><path class="cls-2" d="M836.7,1583.38c0-19.87,14.7-34.23,34.23-34.23s34.28,14.36,34.28,34.23-14.6,34.03-34.28,34.03-34.23-14.01-34.23-34.03ZM870.93,1607.69c14.21,0,23.54-9.81,23.54-24.41s-9.33-24.41-23.54-24.41-23.49,10.16-23.49,24.41,9.47,24.41,23.49,24.41Z"/><path class="cls-2" d="M954.11,1550.17c13.67,0,22.56,7.71,22.56,20.12,0,9.08-5.22,15.82-13.43,18.7l16.06,27.44h-11.91l-14.99-26.03h-16.55v26.03h-10.25v-66.26h28.52ZM935.85,1559.4v21.88h17.77c8.15,0,12.35-4.54,12.35-10.99s-4.2-10.89-12.35-10.89h-17.77Z"/><path class="cls-2" d="M1026.7,1550.17c13.67,0,22.56,7.71,22.56,20.12,0,9.08-5.22,15.82-13.43,18.7l16.06,27.44h-11.91l-14.99-26.03h-16.55v26.03h-10.25v-66.26h28.52ZM1008.44,1559.4v21.88h17.77c8.15,0,12.35-4.54,12.35-10.99s-4.2-10.89-12.35-10.89h-17.77Z"/><path class="cls-2" d="M1065.94,1583.38c0-19.87,14.7-34.23,34.23-34.23s34.28,14.36,34.28,34.23-14.6,34.03-34.28,34.03-34.23-14.01-34.23-34.03ZM1100.17,1607.69c14.21,0,23.54-9.81,23.54-24.41s-9.33-24.41-23.54-24.41-23.49,10.16-23.49,24.41,9.47,24.41,23.49,24.41Z"/><path class="cls-2" d="M1157.42,1550.12l16.5,57.08,16.06-56.01h10.99l16.06,56.01,16.46-57.08h10.3l-18.46,66.31h-16.55l-13.33-49.12-13.28,49.12h-16.55l-18.46-66.31h10.25Z"/><path class="cls-2" d="M1274.88,1546.71l-8.94,25.2h-9.08l6.69-25.2h11.33Z"/><path class="cls-2" d="M1296.59,1597.05c3.17,6.49,9.28,11.13,18.26,11.13,7.67,0,13.62-3.66,13.62-9.47s-5.27-8.01-15.04-11.13c-12.6-4.05-22.51-8.25-22.41-19.97.1-12.11,11.52-18.46,22.56-18.46,12.26,0,20.07,6.59,23.78,13.67l-7.96,5.57c-2.83-5.13-8.2-9.91-15.82-9.91-6.3,0-12.26,3.22-12.26,9.08s5.42,7.42,14.79,10.6c12.35,4.2,22.66,7.62,22.66,20.46s-12.35,18.8-23.73,18.8c-12.99,0-22.31-6.64-26.12-15.04l7.67-5.32Z"/><path class="cls-2" d="M1399.92,1616.43h-10.25v-66.31h10.25v66.31Z"/><path class="cls-2" d="M1451.27,1550.17c19.68,0,34.08,14.16,34.08,33.15s-14.4,33.11-34.08,33.11h-26.66v-66.26h26.66ZM1451.12,1607.16c14.11,0,23.49-10.4,23.49-23.83s-9.38-23.97-23.49-23.97h-16.26v47.8h16.26Z"/><path class="cls-2" d="M1505.74,1550.12h46.48v9.33h-36.23v18.26h31.1v9.33h-31.1v20.07h37.26v9.33h-47.51v-66.31Z"/><path class="cls-2" d="M1565.49,1616.43l27.39-66.31h11.13l27.39,66.31h-10.94l-5.27-13.82h-33.5l-5.27,13.82h-10.94ZM1612.12,1594.07l-13.67-32.47-13.67,32.47h27.34Z"/><path class="cls-2" d="M1650.09,1597.05c3.17,6.49,9.28,11.13,18.26,11.13,7.67,0,13.62-3.66,13.62-9.47s-5.27-8.01-15.04-11.13c-12.6-4.05-22.51-8.25-22.41-19.97.1-12.11,11.52-18.46,22.56-18.46,12.26,0,20.07,6.59,23.78,13.67l-7.96,5.57c-2.83-5.13-8.2-9.91-15.82-9.91-6.3,0-12.26,3.22-12.26,9.08s5.42,7.42,14.79,10.6c12.35,4.2,22.66,7.62,22.66,20.46s-12.35,18.8-23.73,18.8c-12.99,0-22.31-6.64-26.12-15.04l7.67-5.32Z"/><path class="cls-2" d="M66.49,1670.12h53.91v9.62h-21.83v56.69h-10.21v-56.69h-21.88v-9.62Z"/><path class="cls-2" d="M130.24,1703.38c0-19.87,14.7-34.23,34.23-34.23s34.28,14.36,34.28,34.23-14.6,34.03-34.28,34.03-34.23-14.01-34.23-34.03ZM164.47,1727.69c14.21,0,23.54-9.81,23.54-24.41s-9.33-24.41-23.54-24.41-23.49,10.16-23.49,24.41,9.47,24.41,23.49,24.41Z"/><path class="cls-2" d="M239.23,1670.12h53.91v9.62h-21.83v56.69h-10.21v-56.69h-21.88v-9.62Z"/><path class="cls-2" d="M302.98,1703.38c0-19.87,14.7-34.23,34.23-34.23s34.28,14.36,34.28,34.23-14.6,34.03-34.28,34.03-34.23-14.01-34.23-34.03ZM337.21,1727.69c14.21,0,23.54-9.81,23.54-24.41s-9.33-24.41-23.54-24.41-23.49,10.16-23.49,24.41,9.47,24.41,23.49,24.41Z"/><path class="cls-2" d="M418.54,1670.17c19.68,0,34.08,14.16,34.08,33.15s-14.4,33.11-34.08,33.11h-26.66v-66.26h26.66ZM418.39,1727.16c14.11,0,23.49-10.4,23.49-23.83s-9.38-23.97-23.49-23.97h-16.26v47.8h16.26Z"/><path class="cls-2" d="M463.05,1736.43l27.39-66.31h11.13l27.39,66.31h-10.94l-5.27-13.82h-33.5l-5.27,13.82h-10.94ZM509.68,1714.07l-13.67-32.47-13.67,32.47h27.34Z"/><path class="cls-2" d="M542.23,1670.12l18.02,29.98,18.07-29.98h12.21l-25.15,40.82v25.49h-10.21v-25.49l-25.15-40.82h12.21Z"/><path class="cls-2" d="M620.88,1666.71l-8.94,25.2h-9.08l6.69-25.2h11.33Z"/><path class="cls-2" d="M642.58,1717.05c3.17,6.49,9.28,11.13,18.26,11.13,7.67,0,13.62-3.66,13.62-9.47s-5.27-8.01-15.04-11.13c-12.6-4.05-22.51-8.25-22.41-19.97.1-12.11,11.52-18.46,22.56-18.46,12.26,0,20.07,6.59,23.78,13.67l-7.96,5.57c-2.83-5.13-8.2-9.91-15.82-9.91-6.3,0-12.26,3.22-12.26,9.08s5.42,7.42,14.79,10.6c12.35,4.2,22.66,7.62,22.66,20.46s-12.35,18.8-23.73,18.8c-12.99,0-22.31-6.64-26.12-15.04l7.67-5.32Z"/><path class="cls-2" d="M765.4,1669.15c12.06,0,22.75,5.91,29.15,16.16l-7.96,5.57c-5.32-8.01-12.45-12.01-21.19-12.01-13.62,0-23.34,10.25-23.34,24.41s9.91,24.41,23.58,24.41c8.79,0,16.31-4.1,21.48-11.72l7.67,5.32c-6.25,10.16-16.99,16.11-29.15,16.11-19.24,0-34.33-14.75-34.33-34.13s14.89-34.13,34.08-34.13Z"/><path class="cls-2" d="M809.13,1703.38c0-19.87,14.7-34.23,34.23-34.23s34.28,14.36,34.28,34.23-14.6,34.03-34.28,34.03-34.23-14.01-34.23-34.03ZM843.36,1727.69c14.21,0,23.54-9.81,23.54-24.41s-9.33-24.41-23.54-24.41-23.49,10.16-23.49,24.41,9.47,24.41,23.49,24.41Z"/><path class="cls-2" d="M898.02,1736.43v-66.31h10.25l40.38,50.54v-50.54h10.25v66.31h-10.35l-40.28-50.05v50.05h-10.25Z"/><path class="cls-2" d="M975.79,1670.12h10.69l20.95,55.37,20.95-55.37h10.69l-25.54,66.31h-12.21l-25.54-66.31Z"/><path class="cls-2" d="M1055.94,1670.12h46.48v9.33h-36.23v18.26h31.1v9.33h-31.1v20.07h37.26v9.33h-47.51v-66.31Z"/><path class="cls-2" d="M1152.31,1670.17c13.67,0,22.56,7.71,22.56,20.12,0,9.08-5.22,15.82-13.43,18.7l16.06,27.44h-11.91l-14.99-26.03h-16.55v26.03h-10.25v-66.26h28.52ZM1134.05,1679.4v21.88h17.77c8.15,0,12.35-4.54,12.35-10.99s-4.2-10.89-12.35-10.89h-17.77Z"/><path class="cls-2" d="M1199.95,1717.05c3.17,6.49,9.28,11.13,18.26,11.13,7.67,0,13.62-3.66,13.62-9.47s-5.27-8.01-15.04-11.13c-12.6-4.05-22.51-8.25-22.41-19.97.1-12.11,11.52-18.46,22.56-18.46,12.26,0,20.07,6.59,23.78,13.67l-7.96,5.57c-2.83-5.13-8.2-9.91-15.82-9.91-6.3,0-12.26,3.22-12.26,9.08s5.42,7.42,14.79,10.6c12.35,4.2,22.66,7.62,22.66,20.46s-12.35,18.8-23.73,18.8c-12.99,0-22.31-6.64-26.12-15.04l7.67-5.32Z"/><path class="cls-2" d="M1253.59,1736.43l27.39-66.31h11.13l27.39,66.31h-10.94l-5.27-13.82h-33.5l-5.27,13.82h-10.94ZM1300.22,1714.07l-13.67-32.47-13.67,32.47h27.34Z"/><path class="cls-2" d="M1320.42,1670.12h53.91v9.62h-21.83v56.69h-10.21v-56.69h-21.88v-9.62Z"/><path class="cls-2" d="M1402.04,1736.43h-10.25v-66.31h10.25v66.31Z"/><path class="cls-2" d="M1422.43,1703.38c0-19.87,14.7-34.23,34.23-34.23s34.28,14.36,34.28,34.23-14.6,34.03-34.28,34.03-34.23-14.01-34.23-34.03ZM1456.66,1727.69c14.21,0,23.54-9.81,23.54-24.41s-9.33-24.41-23.54-24.41-23.49,10.16-23.49,24.41,9.47,24.41,23.49,24.41Z"/><path class="cls-2" d="M1511.32,1736.43v-66.31h10.25l40.38,50.54v-50.54h10.25v66.31h-10.35l-40.28-50.05v50.05h-10.25Z"/><path class="cls-2" d="M1600.46,1717.05c3.17,6.49,9.28,11.13,18.26,11.13,7.67,0,13.62-3.66,13.62-9.47s-5.27-8.01-15.04-11.13c-12.6-4.05-22.51-8.25-22.41-19.97.1-12.11,11.52-18.46,22.56-18.46,12.26,0,20.07,6.59,23.78,13.67l-7.96,5.57c-2.83-5.13-8.2-9.91-15.82-9.91-6.3,0-12.26,3.22-12.26,9.08s5.42,7.42,14.79,10.6c12.35,4.2,22.66,7.62,22.66,20.46s-12.35,18.8-23.73,18.8c-12.99,0-22.31-6.64-26.12-15.04l7.67-5.32Z"/><circle class="cls-1" cx="856.06" cy="487" r="437"/><path class="cls-1" d="M547.02,795.14c-1.63-17.5-2.46-35.22-2.46-53.14,0-312.87,253.63-566.5,566.5-566.5,18.23,0,36.25.86,54.04,2.54"/><path class="cls-1" d="M1165.11,177.95c1.62,17.46,2.45,35.16,2.45,53.05,0,312.87-253.63,566.5-566.5,566.5-17.89,0-35.58-.83-53.05-2.45"/><circle class="cls-2" cx="995.06" cy="434" r="37.5"/></svg>