<?xml version="1.0" encoding="UTF-8"?><svg id="Ebene_2" xmlns="http://www.w3.org/2000/svg" viewBox="0 0 4851.8 974"><defs><style>.cls-1{fill:none;stroke:#26262c;stroke-miterlimit:10;stroke-width:100px;}.cls-2{fill:#26262c;stroke-width:0px;}</style></defs><path class="cls-2" d="M1313.41,652.12h-89.61V201.4h89.61v450.72Z"/><path class="cls-2" d="M1417.96,652.12v-318.62h80.98l1.66,36.84c16.6-22.24,50.78-43.48,98.24-43.48,73.68,0,125.79,48.46,125.79,125.13v200.14h-84.97v-178.23c0-44.14-28.54-68.04-66.05-68.04s-70.69,23.9-70.69,68.04v178.23h-84.97Z"/><path class="cls-2" d="M1849.43,538.61c19.25,29.87,51.78,49.12,83.97,49.12,25.56,0,45.47-9.96,45.47-27.88,0-16.93-16.93-22.9-55.76-31.53-69.7-15.6-118.82-37.84-118.82-103.22,0-59.74,55.1-98.24,124.46-98.24,64.72,0,104.88,31.86,127.78,66.38l-54.43,44.81c-13.94-22.24-37.5-39.5-71.36-39.5-27.55,0-46.47,9.62-46.47,25.56,0,17.26,20.25,22.9,59.74,32.53,71.03,17.26,116.17,40.16,116.17,103.22s-57.75,98.91-125.79,98.91c-62.73,0-113.18-28.88-142.05-74.01l57.09-46.13Z"/><path class="cls-2" d="M2178.01,182.15c28.88,0,49.12,19.91,49.12,49.12s-20.25,48.79-49.12,48.79-48.79-19.91-48.79-48.79,19.91-49.12,48.79-49.12ZM2135.86,652.12v-318.62h85.3v318.62h-85.3Z"/><path class="cls-2" d="M2450.5,326.86c51.11,0,83.97,18.59,105.21,45.14l1.66-38.5h81.65l-.66,285.1c-.33,105.54-71.36,173.25-184.2,173.25-58.41,0-116.83-25.56-153.67-69.04l54.76-53.77c30.2,29.21,62.73,46.13,98.91,46.13,60.41,0,99.9-34.85,99.9-87.95v-10.95c-19.25,25.56-56.75,42.48-103.55,42.48-90.28,0-154.33-70.03-154.33-166.28s64.06-165.62,154.33-165.62ZM2381.8,492.14c0,50.45,35.51,90.28,86.29,90.28s86.63-39.83,86.63-90.28-36.51-88.95-86.63-88.95-86.29,37.51-86.29,88.95Z"/><path class="cls-2" d="M2734.28,652.12V184.81h85.3v182.55c16.59-20.25,49.78-40.49,95.59-40.49,73.02,0,125.13,48.46,125.13,125.13v200.14h-85.3v-178.23c0-44.14-28.21-68.04-65.05-68.04s-70.36,23.9-70.36,68.04v178.23h-85.3Z"/><path class="cls-2" d="M3091.07,404.19v-70.69h54.1v-102.23h82.64v102.23h95.59v70.69h-93.59v131.1c0,33.19,18.59,47.79,47.13,47.79,15.93,0,36.18-3.65,54.1-10.95l7.97,70.69c-19.58,9.62-51.11,15.93-77,15.93-70.03,0-117.16-36.18-117.16-111.19v-143.38h-53.77Z"/><path class="cls-2" d="M3429.28,538.61c19.25,29.87,51.78,49.12,83.97,49.12,25.56,0,45.47-9.96,45.47-27.88,0-16.93-16.93-22.9-55.76-31.53-69.7-15.6-118.82-37.84-118.82-103.22,0-59.74,55.1-98.24,124.46-98.24,64.72,0,104.88,31.86,127.78,66.38l-54.43,44.81c-13.94-22.24-37.5-39.5-71.36-39.5-27.55,0-46.47,9.62-46.47,25.56,0,17.26,20.25,22.9,59.74,32.53,71.03,17.26,116.17,40.16,116.17,103.22s-57.75,98.91-125.79,98.91c-62.73,0-113.18-28.88-142.05-74.01l57.09-46.13Z"/><path class="cls-2" d="M3694.46,427.76c0-136.41,99.57-232.99,235.98-232.99s236.31,96.91,236.31,232.99-99.24,231-236.31,231-235.98-94.92-235.98-231ZM3930.78,575.45c84.3,0,144.04-59.74,144.04-148.03s-59.74-149.02-144.04-149.02-144.04,61.4-144.04,149.02,60.74,148.03,144.04,148.03Z"/><path class="cls-2" d="M4237.78,535.62v-202.13h84.97v180.22c0,44.14,28.54,67.71,65.71,67.71s71.36-23.57,71.36-67.71v-180.22h84.97v318.62h-80.98l-1.66-35.18c-16.6,22.57-50.78,43.48-98.91,43.48-73.68,0-125.46-48.12-125.46-124.79Z"/><path class="cls-2" d="M4603.87,404.19v-70.69h54.1v-102.23h82.64v102.23h95.59v70.69h-93.59v131.1c0,33.19,18.59,47.79,47.13,47.79,15.93,0,36.18-3.65,54.1-10.95l7.97,70.69c-19.58,9.62-51.11,15.93-77,15.93-70.03,0-117.16-36.18-117.16-111.19v-143.38h-53.77Z"/><circle class="cls-1" cx="487" cy="487" r="437"/><path class="cls-1" d="M177.96,795.14c-1.63-17.5-2.46-35.22-2.46-53.14,0-312.87,253.63-566.5,566.5-566.5,18.23,0,36.25.86,54.04,2.54"/><path class="cls-1" d="M796.05,177.95c1.62,17.46,2.45,35.16,2.45,53.05,0,312.87-253.63,566.5-566.5,566.5-17.89,0-35.58-.83-53.05-2.45"/><circle class="cls-2" cx="626" cy="434" r="37.5"/></svg>